PathFileType	4	(X/Y/Z)	/Users/itak/Documents/Research/Walk-IL/dataset/trc/00274_00010.trc
DataRate	CameraRate	NumFrames	NumMarkers	Units	OrigDataRate	OrigDataStartFrame	OrigNumFrames
100.000000	100.000000	4	53	mm	100.000000	0	575
Frame#	Time	RPSI			LPSI			L3			STRN			T10			C7			CLAV			RBAK			LBAK			LSHO			LUPA			LAEL			LAOL			LWTS			LWPS			LFRA			LIFD			LHPS			LHTS			RSHO			RUPA			RAEL			RAOL			RWTS			RWPS			RFRA			RIFD			RHTS			RHPS			RBHD			LFHD			RFHD			LBHD			LHIP			RHIP			RASI			LASI			LKNE			LTHI			LANK			LTIP			LTOE			LMT1			LMT5			LHEE			RKNE			RTHI			RANK			RTIP			RTOE			RMT1			RMT5			RHEE			
		X1	Y1	Z1	X2	Y2	Z2	X3	Y3	Z3	X4	Y4	Z4	X5	Y5	Z5	X6	Y6	Z6	X7	Y7	Z7	X8	Y8	Z8	X9	Y9	Z9	X10	Y10	Z10	X11	Y11	Z11	X12	Y12	Z12	X13	Y13	Z13	X14	Y14	Z14	X15	Y15	Z15	X16	Y16	Z16	X17	Y17	Z17	X18	Y18	Z18	X19	Y19	Z19	X20	Y20	Z20	X21	Y21	Z21	X22	Y22	Z22	X23	Y23	Z23	X24	Y24	Z24	X25	Y25	Z25	X26	Y26	Z26	X27	Y27	Z27	X28	Y28	Z28	X29	Y29	Z29	X30	Y30	Z30	X31	Y31	Z31	X32	Y32	Z32	X33	Y33	Z33	X34	Y34	Z34	X35	Y35	Z35	X36	Y36	Z36	X37	Y37	Z37	X38	Y38	Z38	X39	Y39	Z39	X40	Y40	Z40	X41	Y41	Z41	X42	Y42	Z42	X43	Y43	Z43	X44	Y44	Z44	X45	Y45	Z45	X46	Y46	Z46	X47	Y47	Z47	X48	Y48	Z48	X49	Y49	Z49	X50	Y50	Z50	X51	Y51	Z51	X52	Y52	Z52	X53	Y53	Z53	

1	0	851.7967529296875	1000.742431640625	97.44271850585938	825.900390625	993.3704833984375	-74.68043518066406	857.3130493164062	1069.933837890625	3.826094627380371	1107.36279296875	1244.072875976562	-26.38210105895996	843.1862182617188	1180.584350585938	4.126350879669189	884.6561889648438	1425.394287109375	-9.311883926391602	1045.423828125	1344.203247070312	-19.99206352233887	844.9240112304688	1282.858276367188	66.41020202636719	860.6820678710938	1394.010498046875	-113.9125595092773	948.0875244140625	1404.341918945312	-170.7968292236328	925.0745239257812	1285.948486328125	-247.0013122558594	950.628173828125	1082.5009765625	-261.1483154296875	880.3204956054688	1065.2431640625	-212.9093627929688	1042.635498046875	870.995361328125	-192.0276184082031	1022.081726074219	854.8722534179688	-258.880615234375	976.1235961914062	980.037841796875	-264.4086608886719	1066.008422851562	685.28173828125	-183.1716918945312	1035.02099609375	767.742431640625	-251.9927520751953	1080.229614257812	775.8966674804688	-205.1526031494141	968.0111694335938	1396.500122070312	142.2041168212891	968.5946044921875	1334.9970703125	206.6549377441406	969.1742553710938	1068.982177734375	252.2095336914062	926.578369140625	1060.607543945312	165.51171875	1066.0009765625	847.096435546875	190.6533966064453	1031.44970703125	842.4326171875	268.0404663085938	996.1453247070312	1002.198059082031	262.0351257324219	1073.685180664062	661.4570922851562	187.7637481689453	1097.018676757812	731.78076171875	203.9523162841797	1053.9482421875	729.22021484375	258.9073181152344	905.4839477539062	1573.939331054688	75.50880432128906	1049.538818359375	1644.9326171875	-63.93778228759766	1062.746704101562	1638.698608398438	27.79196357727051	887.6629028320312	1573.807495117188	-69.65970611572266	880.48779296875	946.0737915039062	-179.6180114746094	964.915283203125	948.7597045898438	183.8111724853516	1074.735595703125	950.7752075195312	96.67948150634766	1022.011901855469	955.4859619140625	-148.6797332763672	983.8831787109375	482.5621032714844	-178.7640686035156	960.6785278320312	623.449951171875	-193.3715515136719	882.8302001953125	41.97475433349609	-153.0175323486328	927.6166381835938	257.4621887207031	-175.1131134033203	1091.232299804688	28.21073150634766	-94.38006591796875	1018.100402832031	22.69692611694336	-56.36772155761719	1006.818664550781	34.90933609008789	-166.9130096435547	839.348876953125	36.74604797363281	-92.76140594482422	990.3623657226562	475.3815307617188	145.6261596679688	1022.017639160156	737.8464965820312	173.5556945800781	903.5828247070312	34.50083541870117	122.4785232543945	993.02392578125	351.3560791015625	133.03857421875	1100.788818359375	37.40384292602539	79.08170318603516	1045.38623046875	33.93516540527344	37.25517272949219	1006.988159179688	26.1307373046875	148.1064300537109	852.9656372070312	32.31632995605469	69.93788146972656	
2	0.01	851.6458129882812	1000.880554199219	97.37353515625	825.6644287109375	993.5477905273438	-74.7554931640625	857.2521362304688	1070.064697265625	3.776820182800293	1107.278076171875	1244.117309570312	-26.4553108215332	843.1565551757812	1180.748291015625	3.972381353378296	884.571533203125	1425.45703125	-9.578496932983398	1045.353149414062	1344.277221679688	-20.16678237915039	844.7532958984375	1283.038940429688	66.19676971435547	860.7227172851562	1394.119262695312	-114.1606674194336	948.1549682617188	1404.392822265625	-171.020751953125	925.1676635742188	1285.971069335938	-247.1947631835938	950.55029296875	1082.447021484375	-261.0610046386719	880.0827026367188	1065.381958007812	-212.9668579101562	1041.983154296875	870.8200073242188	-191.6242523193359	1021.541381835938	854.631103515625	-258.5137634277344	975.8455810546875	979.8836059570312	-264.2303161621094	1064.958251953125	684.93896484375	-182.6692657470703	1034.334716796875	767.5579833984375	-251.624267578125	1079.403198242188	775.6043701171875	-204.5713806152344	967.9002075195312	1396.661254882812	142.0166320800781	968.4010009765625	1335.21484375	206.4938354492188	968.6943359375	1069.194091796875	252.0748138427734	926.2783813476562	1060.873901367188	165.2930755615234	1065.278198242188	847.1380004882812	190.6744232177734	1030.605346679688	842.5540771484375	267.9991149902344	995.5319213867188	1002.376525878906	261.9290161132812	1072.805419921875	661.2205810546875	187.6889953613281	1096.113403320312	731.7870483398438	204.0299072265625	1053.055541992188	729.6483154296875	259.1548461914062	905.3477172851562	1573.919067382812	75.38246154785156	1049.221069335938	1645.094848632812	-64.01572418212891	1062.391357421875	1638.839233398438	27.74707221984863	887.4132080078125	1573.876708984375	-69.81075286865234	880.228515625	946.2373657226562	-179.6690063476562	964.9480590820312	948.8107299804688	183.7559204101562	1074.512817382812	951.04248046875	96.84510803222656	1021.777587890625	955.5626220703125	-148.7685394287109	983.7473754882812	482.7003479003906	-178.96826171875	960.500732421875	623.601318359375	-193.5678863525391	882.8892822265625	42.02238082885742	-152.4561462402344	927.4500122070312	257.5379333496094	-174.8762054443359	1091.476684570312	28.2263355255127	-94.59040069580078	1018.52001953125	22.86915969848633	-56.38776016235352	1006.836059570312	34.97224426269531	-166.8446960449219	839.7178955078125	36.89811325073242	-92.01122283935547	990.1207885742188	475.4671020507812	145.6586608886719	1021.747314453125	737.8988037109375	173.51904296875	903.500244140625	34.43664932250977	122.5417251586914	992.8399047851562	351.4493103027344	133.0411834716797	1100.717041015625	37.7707633972168	79.15457153320312	1045.3173828125	34.04936981201172	37.27857971191406	1006.966491699219	26.15866088867188	148.1744384765625	852.9473876953125	32.28562545776367	69.96674346923828	
3	0.02	851.4511108398438	1001.045532226562	97.26390075683594	825.38671875	993.745361328125	-74.85769653320312	857.162353515625	1070.211791992188	3.686579465866089	1107.182983398438	1244.169067382812	-26.56257057189941	843.1329956054688	1180.944091796875	3.757895946502686	884.467041015625	1425.536865234375	-9.925466537475586	1045.272583007812	1344.387329101562	-20.39026260375977	844.5345458984375	1283.253540039062	65.92037963867188	860.7676391601562	1394.244018554688	-114.4864807128906	948.2321166992188	1404.446044921875	-171.3150177001953	925.2918090820312	1285.992065429688	-247.45458984375	950.4591064453125	1082.386352539062	-260.9786682128906	879.7916259765625	1065.54541015625	-213.0541229248047	1041.15625	870.5716552734375	-191.1724853515625	1020.847900390625	854.3273315429688	-258.115966796875	975.501953125	979.7064208984375	-264.0421752929688	1063.664184570312	684.5165405273438	-182.1642913818359	1033.46142578125	767.318603515625	-251.2431488037109	1078.364501953125	775.2244873046875	-203.9433746337891	967.76123046875	1396.859741210938	141.7567291259766	968.1675415039062	1335.489013671875	206.2733917236328	968.0896606445312	1069.470581054688	251.9044952392578	925.8799438476562	1061.21142578125	165.036376953125	1064.4033203125	847.211181640625	190.7029418945312	1029.585327148438	842.7174682617188	267.9559631347656	994.7889404296875	1002.612670898438	261.8032836914062	1071.691162109375	661.0062255859375	187.6492614746094	1095.018432617188	731.8134155273438	204.1253662109375	1051.958740234375	730.0975952148438	259.4051513671875	905.1503295898438	1573.879028320312	75.19112396240234	1048.82275390625	1645.2890625	-64.13381958007812	1061.953491210938	1638.988403320312	27.68332290649414	887.1041259765625	1573.951171875	-70.02220153808594	879.9141845703125	946.4168090820312	-179.7530212402344	964.9408569335938	948.8705444335938	183.6604309082031	1074.244995117188	951.3290405273438	96.98046875	1021.494995117188	955.6465454101562	-148.8944244384766	983.5648193359375	482.8436279296875	-179.1831665039062	960.2591552734375	623.7491455078125	-193.7815093994141	882.9633178710938	42.0676383972168	-151.7665100097656	927.2471923828125	257.6186218261719	-174.5809936523438	1091.769653320312	28.23322105407715	-94.83238983154297	1019.033508300781	23.05042266845703	-56.40773010253906	1006.862731933594	35.04981231689453	-166.7440643310547	840.1636962890625	37.04468536376953	-91.11048126220703	989.8397216796875	475.570556640625	145.6733703613281	1021.425598144531	737.9593505859375	173.4597015380859	903.4089965820312	34.36714553833008	122.6126861572266	992.6224365234375	351.5597229003906	133.0447082519531	1100.617065429688	38.20682907104492	79.24150848388672	1045.238403320312	34.1810417175293	37.29893112182617	1006.939270019531	26.19799613952637	148.2466125488281	852.9247436523438	32.24991226196289	69.99979400634766	
4	0.03	851.2169189453125	1001.225646972656	97.10616302490234	825.0860595703125	993.9401245117188	-74.99038696289062	857.0408325195312	1070.35888671875	3.5433349609375	1107.085327148438	1244.222290039062	-26.7089729309082	843.1168823242188	1181.154907226562	3.481185913085938	884.3493041992188	1425.627563476562	-10.34521961212158	1045.187622070312	1344.5361328125	-20.6520824432373	844.278564453125	1283.485717773438	65.58612060546875	860.8115234375	1394.372192382812	-114.8865280151367	948.3117065429688	1404.492309570312	-171.6750640869141	925.4423217773438	1286.004516601562	-247.7783355712891	950.3580322265625	1082.321899414062	-260.9212646484375	879.4667358398438	1065.71826171875	-213.1768493652344	1040.188842773438	870.25439453125	-190.7252655029297	1020.025512695312	853.9749145507812	-257.7383422851562	975.1088256835938	979.5188598632812	-263.8734130859375	1062.1884765625	684.0198364257812	-181.7287445068359	1032.431030273438	767.0289916992188	-250.9046173095703	1077.159790039062	774.7684936523438	-203.3473358154297	967.6004028320312	1397.084106445312	141.4224243164062	967.9077758789062	1335.806274414062	205.9923400878906	967.3887329101562	1069.802001953125	251.7063903808594	925.3937377929688	1061.604125976562	164.7645721435547	1063.430419921875	847.3198852539062	190.7389831542969	1028.455932617188	842.9198608398438	267.9181823730469	993.962158203125	1002.900390625	261.6668701171875	1070.40380859375	660.8482055664062	187.6526641845703	1093.80126953125	731.8665161132812	204.2344970703125	1050.722412109375	730.5249633789062	259.6317443847656	904.8894653320312	1573.81396484375	74.9281005859375	1048.363037109375	1645.501342773438	-64.29976654052734	1061.455322265625	1639.130615234375	27.59065055847168	886.7509765625	1574.020141601562	-70.29578399658203	879.5654296875	946.5883178710938	-179.8771667480469	964.8466186523438	948.9296264648438	183.5164184570312	1073.946899414062	951.6023559570312	97.04759216308594	1021.182067871094	955.7255859375	-149.0604095458984	983.3402099609375	482.9710998535156	-179.3790588378906	959.9555053710938	623.864501953125	-193.9846496582031	883.0423583984375	42.10169982910156	-150.9940185546875	927.0206909179688	257.6906433105469	-174.2411041259766	1092.09228515625	28.22915458679199	-95.08634185791016	1019.60693359375	23.21394729614258	-56.42409896850586	1006.898803710938	35.13795471191406	-166.6100006103516	840.6521606445312	37.15531158447266	-90.12146759033203	989.5387573242188	475.6834716796875	145.6557922363281	1021.0703125	738.0234375	173.3754119873047	903.3187866210938	34.29959106445312	122.6835708618164	992.3893432617188	351.6781005859375	133.0475311279297	1100.490356445312	38.6788215637207	79.33553314208984	1045.15576171875	34.31873321533203	37.31122970581055	1006.908935546875	26.24879455566406	148.3135986328125	852.8994140625	32.21161270141602	70.03409576416016	
